<svg version="1.1" xmlns="http://www.w3.org/2000/svg" xmlns:xlink="http://www.w3.org/1999/xlink" width="27.5" height="27.5" viewBox="0,0,27.5,27.5"><g transform="translate(-316.25,-166.25)"><g data-paper-data="{&quot;isPaintingLayer&quot;:true}" fill-rule="nonzero" stroke-linecap="butt" stroke-linejoin="miter" stroke-miterlimit="10" stroke-dasharray="" stroke-dashoffset="0" style="mix-blend-mode: normal"><path d="M321.5,192.5c-2.20914,0 -4,-1.79086 -4,-4v-17c0,-2.20914 1.79086,-4 4,-4h17c2.20914,0 4,1.79086 4,4v17c0,2.20914 -1.79086,4 -4,4z" fill="#000000" stroke="#ffffff" stroke-width="2.5"/><path d="M339.34375,180.01563c0,4.52183 -3.94549,8.1875 -8.8125,8.1875c-4.86701,0 -8.8125,-3.66567 -8.8125,-8.1875c0,-4.52183 3.94549,-8.1875 8.8125,-8.1875c4.86701,0 8.8125,3.66567 8.8125,8.1875z" fill="none" stroke="#ffffff" stroke-width="2"/><path d="M329.50404,174.48843l4.18075,-5.88461l7.12784,5.06401l-4.18075,5.88461z" fill="#000000" stroke="none" stroke-width="0"/><path d="M332.05432,170.88531l2.95389,1.24259l1.10766,-1.54449l2.03243,4.20571l-5.72464,0.94259l1.10766,-1.54449l-2.95389,-1.24259z" fill="#ffffff" stroke="none" stroke-width="0"/></g></g></svg>