<svg version="1.1" xmlns="http://www.w3.org/2000/svg" xmlns:xlink="http://www.w3.org/1999/xlink" width="27.25074" height="28.32029" viewBox="0,0,27.25074,28.32029"><g transform="translate(-316.37463,-165.17319)"><g data-paper-data="{&quot;isPaintingLayer&quot;:true}" fill-rule="nonzero" stroke="none" stroke-width="0" stroke-linecap="butt" stroke-linejoin="miter" stroke-miterlimit="10" stroke-dasharray="" stroke-dashoffset="0" style="mix-blend-mode: normal"><path d="M319.1412,193.49309c-1.52794,0.02744 -2.76657,-1.40432 -2.76657,-3.19792v-21.43425c0,-1.79361 1.23863,-3.26986 2.76657,-3.2973l21.7176,-0.39004c1.52794,-0.02744 2.76657,1.40432 2.76657,3.19792v21.43425c0,1.79361 -1.23863,3.26986 -2.76657,3.2973z" fill="#000000"/><path d="M319.22196,173.1875v-5h4.5v5z" fill="#fefefe"/><path d="M327.22196,173.1875v-5h4.5v5z" fill="#fefefe"/><path d="M335.22196,173.35417v-5h4.5v5z" fill="#fefefe"/><path d="M319.38862,180.6875v-5h4.5v5z" fill="#fefefe"/><path d="M327.38862,180.6875v-5h4.5v5z" fill="#fefefe"/><path d="M335.38862,180.85417v-5h4.5v5z" fill="#fefefe"/><path d="M319.22195,188.85417v-5h4.5v5z" fill="#fefefe"/><path d="M327.22195,188.85417v-5h4.5v5z" fill="#fefefe"/><path d="M335.22195,189.02083v-5h4.5v5z" fill="#fefefe"/></g></g></svg>