<svg version="1.1" xmlns="http://www.w3.org/2000/svg" xmlns:xlink="http://www.w3.org/1999/xlink" width="27.5" height="27.5" viewBox="0,0,27.5,27.5"><g transform="translate(-316.25,-166.25)"><g data-paper-data="{&quot;isPaintingLayer&quot;:true}" fill-rule="nonzero" stroke-linecap="butt" stroke-linejoin="miter" stroke-miterlimit="10" stroke-dasharray="" stroke-dashoffset="0" style="mix-blend-mode: normal"><path d="M321.5,192.5c-2.20914,0 -4,-1.79086 -4,-4v-17c0,-2.20914 1.79086,-4 4,-4h17c2.20914,0 4,1.79086 4,4v17c0,2.20914 -1.79086,4 -4,4z" fill="#000000" stroke="#ffffff" stroke-width="2.5"/><path d="M338.114,182.31591c0,4.0731 -3.58172,7.375 -8,7.375c-4.41828,0 -8,-3.3019 -8,-7.375c0,-4.0731 3.58172,-7.375 8,-7.375c4.41828,0 8,3.3019 8,7.375z" fill="none" stroke="#ff0000" stroke-width="2"/><path d="M327.18552,177.54404l3.12459,-6.54212l5.41418,2.58587l-3.1246,6.54212z" fill="#000707" stroke="none" stroke-width="0"/><path d="M327.5983,180.91036l-3.30774,-6.45146l5.33914,-2.73744l3.30774,6.45145z" fill="#000707" stroke="none" stroke-width="0"/><path d="M329.92082,180.42954c-0.98219,0 -1.77841,-1.29189 -1.77841,-2.88552v-3.96759c0,-1.59363 0.79622,-2.88552 1.77841,-2.88552v0c0.98219,0 1.77841,1.29189 1.77841,2.88552v3.96759c0,1.59363 -0.79622,2.88552 -1.77841,2.88552z" fill="#ff0000" stroke="none" stroke-width="0"/></g></g></svg>