<svg version="1.1" xmlns="http://www.w3.org/2000/svg" xmlns:xlink="http://www.w3.org/1999/xlink" width="27.5" height="27.5" viewBox="0,0,27.5,27.5"><g transform="translate(-316.25,-166.25)"><g data-paper-data="{&quot;isPaintingLayer&quot;:true}" fill-rule="nonzero" stroke-linejoin="miter" stroke-miterlimit="10" stroke-dasharray="" stroke-dashoffset="0" style="mix-blend-mode: normal"><path d="M321.5,192.5c-2.20914,0 -4,-1.79086 -4,-4v-17c0,-2.20914 1.79086,-4 4,-4h17c2.20914,0 4,1.79086 4,4v17c0,2.20914 -1.79086,4 -4,4z" fill="#000000" stroke="#ffffff" stroke-width="2.5" stroke-linecap="butt"/><path d="M321.21875,188.57813v-15.375h17.375v15.375z" fill="#646464" stroke="none" stroke-width="none" stroke-linecap="butt"/><path d="M322.59375,177.20313v-2.5h14.625v2.5z" fill="#ffffff" stroke="none" stroke-width="0" stroke-linecap="butt"/><path d="M333.12153,181.66146c0,1.51878 -1.45507,2.75 -3.25,2.75c-1.79493,0 -3.25,-1.23122 -3.25,-2.75c0,-1.51878 1.45507,-2.75 3.25,-2.75c1.79493,0 3.25,1.23122 3.25,2.75z" fill="#ffffff" stroke="none" stroke-width="0" stroke-linecap="butt"/><path d="M322.84375,176.82813v-1.75h1.75v1.75z" fill-opacity="0.95686" fill="#2e0dff" stroke="none" stroke-width="0" stroke-linecap="butt"/><path d="M325.19835,175.3857h10.88889" fill="none" stroke="#000000" stroke-width="0.5" stroke-linecap="round"/><path d="M325.42057,176.27458h10.88889" fill="none" stroke="#000000" stroke-width="0.5" stroke-linecap="round"/><path d="M329.97452,185.38469l-0.04735,2.33535" fill="none" stroke="#a1a1a1" stroke-width="1.5" stroke-linecap="round"/></g></g></svg>